<?xml version="1.0" encoding="utf-8"?>
<!-- Generator: Adobe Illustrator 21.1.0, SVG Export Plug-In . SVG Version: 6.00 Build 0)  -->
<svg version="1.1" id="圖層_1" xmlns="http://www.w3.org/2000/svg" xmlns:xlink="http://www.w3.org/1999/xlink" x="0px" y="0px"
	 viewBox="0 0 595.3 841.9" style="enable-background:new 0 0 595.3 841.9;" xml:space="preserve">
<style type="text/css">
	.st0{fill:none;stroke:#E60012;stroke-width:2;stroke-miterlimit:10;}
	.st1{fill:none;stroke:#EB6100;stroke-width:2;stroke-miterlimit:10;}
	.st2{fill:none;stroke:#E8CF20;stroke-width:2;stroke-miterlimit:10;}
</style>
<g>
	<path class="st0" d="M117,253.8c-2.6-5.5-18.3-40.5-2.9-80c1.6-4.2,15.3-37.7,50.4-52.9C196.7,107,249,107.7,274,148.1
		c20.4,33.1,13.8,78.7-11.5,105.7c-31.6,33.7-92,38-116.7,3c-20.9-29.6-11.4-80.3,20.2-104.2c27.6-20.9,75.3-23.8,95.1,7.6
		c15.8,25.2,9.4,65.6-17.3,84.6c-24.9,17.7-64.9,14.9-79.2-12.1c-11.1-20.9-4.2-51.2,15.8-66.4c20.1-15.3,52.9-14.9,66.3,6
		c9.7,15.2,9.7,41.9-7.2,54.4c-16.1,11.9-42.6,7.1-50.4-10.6c-5.7-13-0.6-31.3,11.5-39.3c8.9-5.9,23.7-7.6,28.8,0
		c4.6,6.9,1.2,21.4-11.5,31.7"/>
	<path class="st1" d="M122.5,253.8c-2.6-5.5-18.3-40.5-2.9-80c1.6-4.2,15.3-37.7,50.4-52.9c32.2-13.9,84.5-13.2,109.5,27.2
		c20.4,33.1,13.8,78.7-11.5,105.7c-31.6,33.7-92,38-116.7,3c-20.9-29.6-11.4-80.3,20.2-104.2c27.6-20.9,75.3-23.8,95.1,7.6
		c15.8,25.2,9.4,65.6-17.3,84.6c-24.9,17.7-64.9,14.9-79.2-12.1c-11.1-20.9-4.2-51.2,15.8-66.4c20.1-15.3,52.9-14.9,66.3,6
		c9.7,15.2,9.7,41.9-7.2,54.4c-16.1,11.9-42.6,7.1-50.4-10.6c-5.7-13-0.6-31.3,11.5-39.3c8.9-5.9,23.7-7.6,28.8,0
		c4.6,6.9,1.2,21.4-11.5,31.7"/>
	<path class="st2" d="M128.6,253.8c-2.6-5.5-18.3-40.5-2.9-80c1.6-4.2,15.3-37.7,50.4-52.9c32.2-13.9,84.5-13.2,109.5,27.2
		c20.4,33.1,13.8,78.7-11.5,105.7c-31.6,33.7-92,38-116.7,3c-20.9-29.6-11.4-80.3,20.2-104.2c27.6-20.9,75.3-23.8,95.1,7.6
		c15.8,25.2,9.4,65.6-17.3,84.6c-24.9,17.7-64.9,14.9-79.2-12.1c-11.1-20.9-4.2-51.2,15.8-66.4c20.1-15.3,52.9-14.9,66.3,6
		c9.7,15.2,9.7,41.9-7.2,54.4c-16.1,11.9-42.6,7.1-50.4-10.6c-5.7-13-0.6-31.3,11.5-39.3c8.9-5.9,23.7-7.6,28.8,0
		c4.6,6.9,1.2,21.4-11.5,31.7"/>
</g>
</svg>
