<svg xmlns="http://www.w3.org/2000/svg" viewBox="0 0 114.41 96.9"><defs><style>.cls-1,.cls-2,.cls-3{fill:none;stroke-miterlimit:10;stroke-width:2px;}.cls-1{stroke:#e60012;}.cls-2{stroke:#eb6100;}.cls-3{stroke:#e8cf20;}</style></defs><title>資產 1</title><g id="圖層_2" data-name="圖層 2"><g id="圖層_1-2" data-name="圖層 1"><path class="cls-1" d="M6.64,80.5c-1.51-3.07-10.8-22.84-1.7-45.12,1-2.37,9-21.27,29.79-29.79,19-7.81,50-7.44,64.69,15.32,12.06,18.64,8.14,44.38-6.81,59.59-18.66,19-54.35,21.41-69,1.7C11.32,65.55,16.92,37,35.59,23.47,51.91,11.67,80.11,10,91.77,27.72c9.35,14.18,5.55,37-10.21,47.67-14.71,10-38.33,8.42-46.82-6.81-6.57-11.79-2.46-28.87,9.36-37.45s31.25-8.38,39.16,3.4C89,43.08,89,58.14,79,65.18c-9.53,6.7-25.18,4-29.79-6C45.82,51.89,48.83,41.6,56,37.09c5.29-3.32,14-4.26,17,0,2.74,3.88.7,12.05-6.81,17.88"/><path class="cls-2" d="M9.9,80.5C8.4,77.43-.89,57.67,8.2,35.39c1-2.37,9-21.27,29.79-29.79,19-7.81,50-7.44,64.69,15.32,12.06,18.64,8.14,44.38-6.81,59.59-18.66,19-54.35,21.41-69,1.7C14.58,65.55,20.18,37,38.85,23.47,55.17,11.67,83.37,10,95,27.72c9.35,14.18,5.55,37-10.21,47.67C70.1,85.38,46.48,83.81,38,68.58c-6.57-11.79-2.46-28.87,9.36-37.45s31.25-8.38,39.16,3.4c5.74,8.55,5.76,23.61-4.26,30.64-9.53,6.7-25.18,4-29.79-6-3.39-7.33-.38-17.62,6.81-22.13,5.29-3.32,14-4.26,17,0C79,41,77,49.14,69.49,55"/><path class="cls-3" d="M13.51,80.5C12,77.43,2.71,57.67,11.81,35.39c1-2.37,9-21.27,29.79-29.79,19-7.81,50-7.44,64.69,15.32,12.06,18.64,8.14,44.38-6.81,59.59-18.66,19-54.35,21.41-69,1.7C18.19,65.55,23.79,37,42.45,23.47,58.77,11.67,87,10,98.63,27.72c9.35,14.18,5.55,37-10.21,47.67-14.71,10-38.33,8.42-46.82-6.81C35,56.79,39.14,39.71,51,31.13s31.25-8.38,39.16,3.4c5.74,8.55,5.76,23.61-4.26,30.64-9.53,6.7-25.18,4-29.79-6-3.39-7.33-.38-17.62,6.81-22.13,5.29-3.32,14-4.26,17,0C82.64,41,80.61,49.14,73.1,55"/></g></g></svg>