<svg xmlns="http://www.w3.org/2000/svg" viewBox="0 0 192.24 170.37"><defs><style>.cls-1,.cls-2,.cls-3{fill:none;stroke-miterlimit:10;stroke-width:2px;}.cls-1{stroke:#e60012;}.cls-2{stroke:#eb6100;}.cls-3{stroke:#e8cf20;}</style></defs><title>資產 2</title><g id="圖層_2" data-name="圖層 2"><g id="圖層_1-2" data-name="圖層 1"><path class="cls-1" d="M10.55,142C8,136.59-7.72,101.53,7.67,62,9.31,57.8,23,24.27,58.09,9.15,90.26-4.71,142.63-4.06,167.57,36.33,188,69.4,181.35,115.06,156,142c-31.58,33.68-92,38-116.68,3C18.47,115.51,27.95,64.8,59.53,40.86,87.15,19.92,134.87,17,154.61,48.41,170.43,73.58,164,114,137.32,133c-24.9,17.72-64.87,14.93-79.23-12.08C47,100,53.92,69.68,73.94,54.45s52.88-14.87,66.27,6c9.71,15.17,9.74,41.89-7.2,54.37-16.14,11.88-42.61,7.14-50.42-10.57C76.85,91.29,81.94,73,94.1,65c8.95-5.89,23.73-7.56,28.81,0,4.63,6.89,1.19,21.38-11.52,31.71"/><path class="cls-2" d="M16.07,142c-2.55-5.45-18.27-40.51-2.88-80,1.64-4.2,15.29-37.73,50.42-52.86C95.78-4.71,148.15-4.06,173.09,36.33,193.51,69.4,186.87,115.06,161.56,142c-31.58,33.68-92,38-116.68,3C24,115.51,33.46,64.8,65,40.86,92.67,19.92,140.39,17,160.12,48.41,175.95,73.58,169.51,114,142.84,133,117.94,150.7,78,147.92,63.61,120.9,52.48,100,59.44,69.68,79.45,54.45s52.88-14.87,66.27,6c9.71,15.17,9.74,41.89-7.2,54.37C122.38,126.75,95.9,122,88.1,104.29,82.36,91.29,87.46,73,99.62,65c8.95-5.89,23.73-7.56,28.81,0,4.63,6.89,1.19,21.38-11.52,31.71"/><path class="cls-3" d="M22.17,142c-2.55-5.45-18.27-40.51-2.88-80,1.64-4.2,15.29-37.73,50.42-52.86C101.88-4.71,154.25-4.06,179.19,36.33,199.61,69.4,193,115.06,167.66,142c-31.58,33.68-92,38-116.68,3C30.09,115.51,39.56,64.8,71.15,40.86,98.77,19.92,146.49,17,166.22,48.41,182,73.58,175.61,114,148.94,133,124,150.7,84.07,147.92,69.71,120.9,58.58,100,65.54,69.68,85.55,54.45s52.88-14.87,66.27,6c9.71,15.17,9.74,41.89-7.2,54.37C128.48,126.75,102,122,94.2,104.29,88.46,91.29,93.56,73,105.72,65c8.95-5.89,23.73-7.56,28.81,0,4.63,6.89,1.19,21.38-11.52,31.71"/></g></g></svg>